<svg width="19" height="17" viewBox="0 0 19 17" fill="none" xmlns="http://www.w3.org/2000/svg">
<path d="M2.18646 0C3.41708 0 4.237 0.822368 4.237 1.91886C4.237 3.01535 3.41708 3.83772 2.05054 3.83772C0.819923 3.83918 0 3.01535 0 1.91886C0 0.822368 0.819923 0 2.18646 0ZM4.38462 17H0V5.27283H4.38462V17ZM19 17H14.8726V10.5911C14.8726 8.81883 13.7721 8.40985 13.3599 8.40985C12.9478 8.40985 11.571 8.68251 11.571 10.5911C11.571 10.8638 11.571 17 11.571 17H7.30769V5.27283H11.5725V6.90877C12.122 5.95447 13.2225 5.27283 15.2862 5.27283C17.3499 5.27283 19 6.90877 19 10.5911V17Z" fill="white"/>
</svg>
